<?xml version="1.0" standalone="no"?><!DOCTYPE svg PUBLIC "-//W3C//DTD SVG 1.1//EN" "http://www.w3.org/Graphics/SVG/1.1/DTD/svg11.dtd"><svg t="1652166888818" class="icon" viewBox="0 0 1112 1024" version="1.1" xmlns="http://www.w3.org/2000/svg" p-id="4735" xmlns:xlink="http://www.w3.org/1999/xlink" width="217.1875" height="200"><defs><style type="text/css">@font-face { font-family: feedback-iconfont; src: url("//at.alicdn.com/t/font_1031158_u69w8yhxdu.woff2?t=1630033759944") format("woff2"), url("//at.alicdn.com/t/font_1031158_u69w8yhxdu.woff?t=1630033759944") format("woff"), url("//at.alicdn.com/t/font_1031158_u69w8yhxdu.ttf?t=1630033759944") format("truetype"); }
</style></defs><path d="M441.202241 55.527911L10.044346 486.685805C-11.186914 506.283892 3.51165 542.213716 32.90878 542.213716h52.261563v409.926635c0 39.196172 32.663477 71.859649 71.859649 71.859649h223.744816c17.964912 0 32.663477-14.698565 32.663477-32.663477v-97.99043c0-76.759171 62.060606-140.452951 140.452951-140.452951 76.759171 0 140.452951 62.060606 140.45295 140.452951v97.99043c0 17.964912 14.698565 32.663477 32.663477 32.663477h228.644338c39.196172 0 71.859649-32.663477 71.859649-71.859649V542.213716h52.261563c29.397129 0 44.095694-35.929825 22.864434-55.527911L671.479752 55.527911C607.785973-8.165869 504.89602-8.165869 441.202241 55.527911z m-37.562999 552.012759c0 8.165869-6.532695 16.331738-16.331738 16.331738H202.758859c-8.165869 0-16.331738-6.532695-16.331738-16.331738v-4.899522c0-8.165869 6.532695-16.331738 16.331738-16.331738h186.181819c8.165869 0 16.331738 6.532695 16.331738 16.331738v4.899522z" fill="#ffffff" p-id="4736"></path></svg>