<?xml version="1.0" standalone="no"?><!DOCTYPE svg PUBLIC "-//W3C//DTD SVG 1.1//EN" "http://www.w3.org/Graphics/SVG/1.1/DTD/svg11.dtd"><svg t="1652166771100" class="icon" viewBox="0 0 1024 1024" version="1.1" xmlns="http://www.w3.org/2000/svg" p-id="18425" id="mx_n_1652166771101" xmlns:xlink="http://www.w3.org/1999/xlink" width="200" height="200"><defs><style type="text/css">@font-face { font-family: feedback-iconfont; src: url("//at.alicdn.com/t/font_1031158_u69w8yhxdu.woff2?t=1630033759944") format("woff2"), url("//at.alicdn.com/t/font_1031158_u69w8yhxdu.woff?t=1630033759944") format("woff"), url("//at.alicdn.com/t/font_1031158_u69w8yhxdu.ttf?t=1630033759944") format("truetype"); }
</style></defs><path d="M877.714 146.286h73.143A73.143 73.143 0 0 1 1024 219.429v731.428A73.143 73.143 0 0 1 950.857 1024H73.143A73.143 73.143 0 0 1 0 950.857V219.43a73.143 73.143 0 0 1 73.143-73.143h73.143v36.571a109.714 109.714 0 0 0 219.428 0v-36.571h292.572v36.571a109.714 109.714 0 0 0 219.428 0v-36.571zM256 438.857A36.571 36.571 0 0 0 256 512h512a36.571 36.571 0 1 0 0-73.143H256z m0 219.429a36.571 36.571 0 0 0 0 73.143h219.429a36.571 36.571 0 0 0 0-73.143H256zM256 0a36.571 36.571 0 0 1 36.571 36.571v146.286a36.571 36.571 0 0 1-73.142 0V36.571A36.571 36.571 0 0 1 256 0z m512 0a36.571 36.571 0 0 1 36.571 36.571v146.286a36.571 36.571 0 1 1-73.142 0V36.571A36.571 36.571 0 0 1 768 0z" fill="#dbdbdb" p-id="18426" data-spm-anchor-id="a313x.7781069.0.i9" class=""></path></svg>